<svg width="712" height="680" viewBox="0 0 712 680" fill="none" xmlns="http://www.w3.org/2000/svg">
<path d="M93.4218 91.0143H93.2805C85.5995 91.0143 79.3743 96.9714 79.3743 104.322C79.3743 111.672 85.5995 117.629 93.2805 117.629H93.4218C101.103 117.629 107.328 111.672 107.328 104.322C107.328 96.9714 101.103 91.0143 93.4218 91.0143Z" fill="black"/>
<path d="M162.301 91.0143H162.16C154.479 91.0143 148.254 96.9714 148.254 104.322C148.254 111.672 154.479 117.629 162.16 117.629H162.301C169.982 117.629 176.207 111.672 176.207 104.322C176.207 96.9714 169.982 91.0143 162.301 91.0143Z" fill="black"/>
<path d="M231.181 91.0143H231.039C223.358 91.0143 217.133 96.9714 217.133 104.322C217.133 111.672 223.358 117.629 231.039 117.629H231.181C238.862 117.629 245.087 111.672 245.087 104.322C245.087 96.9714 238.862 91.0143 231.181 91.0143Z" fill="black"/>
<path d="M617.867 91.0143H349.574C341.893 91.0143 335.667 96.9714 335.667 104.322C335.667 111.667 341.893 117.629 349.574 117.629H617.867C625.548 117.629 631.773 111.667 631.773 104.322C631.773 96.9714 625.548 91.0143 617.867 91.0143Z" fill="black"/>
<path d="M365.582 628.684C361.926 628.684 358.352 630.108 355.75 632.583C353.164 635.057 351.676 638.493 351.676 641.991C351.676 645.49 353.164 648.926 355.75 651.4C358.352 653.874 361.926 655.298 365.582 655.298C369.238 655.298 372.829 653.874 375.414 651.4C378.011 648.926 379.489 645.49 379.489 641.991C379.489 638.493 378.011 635.057 375.414 632.583C372.829 630.108 369.238 628.684 365.582 628.684Z" fill="black"/>
<path d="M667.82 27.2798H44.1795C19.8218 27.2798 0 46.2478 0 69.5563V613.022C0 636.336 19.8218 655.298 44.1795 655.298H307.328C315.009 655.298 321.234 649.341 321.234 641.991C321.234 634.641 315.009 628.684 307.328 628.684H44.1795C35.1567 628.684 27.8125 621.661 27.8125 613.022V181.363H684.188V613.022C684.188 621.656 676.843 628.684 667.82 628.684H422.288C414.607 628.684 408.382 634.641 408.382 641.991C408.382 649.341 414.607 655.298 422.288 655.298H667.82C692.178 655.298 712 636.336 712 613.022V69.5563C712 46.2478 692.178 27.2798 667.82 27.2798ZM27.8125 154.743V69.5563C27.8125 60.9222 35.1567 53.8943 44.1795 53.8943H667.82C676.843 53.8943 684.188 60.9222 684.188 69.5563V154.749H27.8125V154.743Z" fill="black"/>
<path d="M150.704 580.861H561.297C568.978 580.861 575.203 574.904 575.203 567.554C575.203 560.204 568.978 554.247 561.297 554.247H150.704C143.028 554.247 136.797 560.204 136.797 567.554C136.797 574.904 143.028 580.861 150.704 580.861Z" fill="black"/>
<path d="M130.03 450.01C122.29 450.01 114.55 449.15 106.81 447.43C99.2133 445.853 92.5483 443.632 86.815 440.765L90.04 411.525C104.66 419.552 118.563 423.565 131.75 423.565C138.63 423.565 144.005 422.203 147.875 419.48C151.745 416.613 153.68 412.6 153.68 407.44C153.68 403.57 152.677 400.273 150.67 397.55C148.807 394.683 145.725 391.96 141.425 389.38C137.268 386.657 131.248 383.503 123.365 379.92C110.608 374.187 101.292 368.095 95.415 361.645C89.6817 355.195 86.815 346.738 86.815 336.275C86.815 327.962 88.8217 320.58 92.835 314.13C96.8483 307.68 102.653 302.663 110.25 299.08C117.847 295.353 126.877 293.49 137.34 293.49C150.383 293.49 163.427 296.428 176.47 302.305L173.675 330.685C166.365 327.102 159.628 324.45 153.465 322.73C147.445 320.867 141.353 319.935 135.19 319.935C128.597 319.935 123.508 321.225 119.925 323.805C116.485 326.385 114.765 330.183 114.765 335.2C114.765 339.07 115.912 342.367 118.205 345.09C120.498 347.67 123.293 349.963 126.59 351.97C130.03 353.833 136.193 356.843 145.08 361C157.837 367.163 167.082 373.613 172.815 380.35C178.692 387.087 181.63 395.758 181.63 406.365C181.63 419.695 177.043 430.302 167.87 438.185C158.697 446.068 146.083 450.01 130.03 450.01ZM236.47 449.15C228.3 449.15 221.993 446.785 217.55 442.055C213.25 437.325 211.1 430.302 211.1 420.985V361.43H199.06L201.425 339.5H211.1V315.85L236.9 313.055V339.5H255.605V361.43H236.9V414.32C236.9 418.763 237.76 422.06 239.48 424.21C241.343 426.217 244.21 427.22 248.08 427.22H255.82L253.455 449.15H236.47ZM363.283 339.5V447H340.923L339.848 438.615C332.825 445.352 324.081 448.72 313.618 448.72C302.868 448.72 294.626 445.208 288.893 438.185C283.303 431.018 280.508 421.415 280.508 409.375V339.5H306.308V405.935C306.308 420.412 311.181 427.65 320.928 427.65C327.665 427.65 333.183 424.568 337.483 418.405V339.5H363.283ZM477.184 285.75V447H452.889L452.459 440.12C449.019 443.13 445.293 445.423 441.279 447C437.409 448.433 432.894 449.15 427.734 449.15C418.848 449.15 411.179 446.642 404.729 441.625C398.279 436.608 393.406 429.872 390.109 421.415C386.813 412.958 385.164 403.642 385.164 393.465C385.164 383.288 386.813 373.972 390.109 365.515C393.406 357.058 398.279 350.322 404.729 345.305C411.179 340.288 418.848 337.78 427.734 337.78C437.051 337.78 444.934 340.575 451.384 346.165V285.75H477.184ZM431.604 428.08C438.628 428.08 443.859 424.998 447.299 418.835C450.883 412.528 452.674 404.072 452.674 393.465C452.674 382.858 450.883 374.473 447.299 368.31C443.859 362.003 438.628 358.85 431.604 358.85C425.298 358.85 420.353 362.003 416.769 368.31C413.186 374.617 411.394 383.002 411.394 393.465C411.394 403.928 413.186 412.313 416.769 418.62C420.353 424.927 425.298 428.08 431.604 428.08ZM508.18 296.5H533.98V323.16H508.18V296.5ZM508.18 339.5H533.98V447H508.18V339.5ZM606.866 449.15C597.12 449.15 588.663 446.642 581.496 441.625C574.33 436.608 568.811 429.872 564.941 421.415C561.215 412.958 559.351 403.642 559.351 393.465C559.351 383.288 561.215 373.972 564.941 365.515C568.811 357.058 574.33 350.322 581.496 345.305C588.663 340.288 597.12 337.78 606.866 337.78C616.613 337.78 625.07 340.288 632.236 345.305C639.546 350.322 645.065 357.058 648.791 365.515C652.661 373.972 654.596 383.288 654.596 393.465C654.596 403.642 652.661 412.958 648.791 421.415C645.065 429.872 639.546 436.608 632.236 441.625C625.07 446.642 616.613 449.15 606.866 449.15ZM606.866 428.08C613.603 428.08 618.835 424.927 622.561 418.62C626.431 412.313 628.366 403.928 628.366 393.465C628.366 383.002 626.431 374.617 622.561 368.31C618.835 362.003 613.603 358.85 606.866 358.85C600.273 358.85 595.041 362.075 591.171 368.525C587.445 374.832 585.581 383.145 585.581 393.465C585.581 403.785 587.445 412.17 591.171 418.62C595.041 424.927 600.273 428.08 606.866 428.08Z" fill="#121111"/>
</svg>
