<svg width="427" height="427" viewBox="0 0 427 427" fill="none" xmlns="http://www.w3.org/2000/svg">
<g clip-path="url(#clip0_182_2)">
<path d="M414.08 204.373L222.187 12.48C214.4 4.8 203.733 0 192 0H42.667C19.093 0 0 19.093 0 42.667V192C0 203.84 4.8 214.507 12.587 222.187L204.587 414.187C212.267 421.867 222.934 426.667 234.667 426.667C246.4 426.667 257.174 421.867 264.854 414.187L414.187 264.854C421.867 257.067 426.667 246.401 426.667 234.667C426.667 222.827 421.867 212.16 414.08 204.373ZM74.667 106.667C56.96 106.667 42.667 92.374 42.667 74.667C42.667 56.96 56.96 42.667 74.667 42.667C92.374 42.667 106.667 56.96 106.667 74.667C106.667 92.374 92.373 106.667 74.667 106.667Z" fill="#0087BD"/>
</g>
<defs>
<clipPath id="clip0_182_2">
<rect width="426.667" height="426.667" fill="white"/>
</clipPath>
</defs>
</svg>
