<svg width="512" height="512" viewBox="0 0 512 512" fill="none" xmlns="http://www.w3.org/2000/svg">
<path d="M310.004 196C261.48 196 222.004 235.477 222.004 284C222.004 332.523 261.48 372 310.004 372C358.527 372 398.004 332.523 398.004 284C398.004 235.477 358.527 196 310.004 196ZM310.004 352C272.508 352 242.004 321.496 242.004 284C242.004 246.504 272.508 216 310.004 216C347.5 216 378.004 246.504 378.004 284C378.004 321.496 347.5 352 310.004 352Z" fill="#FEFAFA"/>
<path d="M310.004 239.004C304.48 239.004 300.004 243.48 300.004 249.004C300.004 254.527 304.48 259.004 310.004 259.004C323.785 259.004 335 270.219 335 284C335 289.523 339.477 294 345 294C350.523 294 355 289.523 355 284C355 259.188 334.816 239.004 310.004 239.004V239.004Z" fill="#FEFAFA"/>
<path d="M61.6445 103.402C59.1054 98.5 53.0742 96.582 48.1679 99.1172C43.2617 101.656 41.3437 107.691 43.8828 112.598L70.8007 164.598C72.5429 167.965 76.0664 170.023 79.832 170C83.621 169.941 87.0546 167.746 88.6953 164.328L104.992 130.398L122.691 164.598C124.414 167.918 127.84 170 131.574 170H131.723C135.516 169.941 138.945 167.746 140.59 164.328L165.562 112.328C167.953 107.352 165.855 101.375 160.879 98.9844C155.898 96.5937 149.926 98.6914 147.535 103.672L131.238 137.602L113.535 103.402C111.793 100.035 108.277 97.9687 104.508 98C100.715 98.0586 97.2812 100.254 95.6406 103.672L79.3476 137.602L61.6445 103.402Z" fill="#FEFAFA"/>
<path d="M125.988 48C128.621 48 131.199 46.9297 133.059 45.0703C134.922 43.2109 135.988 40.6289 135.988 38C135.988 35.3711 134.922 32.7891 133.059 30.9297C131.199 29.0703 128.621 28 125.988 28C123.359 28 120.781 29.0703 118.922 30.9297C117.059 32.7891 115.988 35.3711 115.988 38C115.988 40.6289 117.059 43.2109 118.922 45.0703C120.781 46.9297 123.359 48 125.988 48Z" fill="#FEFAFA"/>
<path d="M512 200V68C512 45.9453 494.055 28 472 28H167.988C162.469 28 157.988 32.4766 157.988 38C157.988 43.5234 162.469 48 167.988 48H472C483.027 48 492 56.9727 492 68V200C492 211.027 483.027 220 472 220H424C423.711 220 423.43 220.02 423.148 220.043C407.715 192.848 382.766 171.738 352.855 161.266L367.68 130.402L385.383 164.598C387.102 167.922 390.527 170 394.262 170H394.414C398.203 169.941 401.637 167.746 403.277 164.328L428.25 112.328C430.641 107.352 428.543 101.379 423.566 98.9883C418.59 96.5938 412.613 98.6914 410.223 103.672L393.93 137.602L376.227 103.402C374.484 100.035 370.973 97.9688 367.195 98.0039C363.402 98.0586 359.973 100.254 358.332 103.672L342.035 137.602L324.336 103.402C321.797 98.5 315.762 96.582 310.855 99.1211C305.949 101.66 304.035 107.691 306.57 112.598L328.703 155.352C322.598 154.469 316.355 154 310.008 154C297.715 154 285.812 155.719 274.531 158.922L296.91 112.328C299.301 107.352 297.203 101.379 292.223 98.9883C287.246 96.5938 281.27 98.6914 278.883 103.672L262.586 137.602L244.883 103.402C243.141 100.035 239.645 97.9688 235.852 98.0039C232.063 98.0586 228.629 100.254 226.988 103.672L210.695 137.602L192.992 103.402C190.453 98.5 184.422 96.582 179.516 99.1211C174.609 101.66 172.691 107.691 175.23 112.598L202.148 164.598C203.891 167.965 207.398 170.023 211.18 170C214.969 169.941 218.402 167.746 220.043 164.328L236.34 130.402L254.039 164.598C254.336 165.172 254.699 165.691 255.094 166.188C230.57 177.664 210.195 196.57 196.887 220H40C28.9727 220 20 211.027 20 200V68C20 56.9727 28.9727 48 40 48H80.9922C86.5156 48 90.9922 43.5234 90.9922 38C90.9922 32.4766 86.5156 28 80.9922 28H40C17.9453 28 0 45.9453 0 68V200C0 222.059 17.9453 240 40 240H187.676C182.715 253.75 180.004 268.562 180.004 284C180.004 355.684 238.32 414 310.004 414C333.559 414 355.672 407.703 374.746 396.703L454.113 476.07C460.723 482.68 469.406 485.984 478.09 485.984C486.773 485.984 495.457 482.68 502.066 476.07C515.289 462.848 515.289 441.336 502.066 428.113L470.883 396.93C466.977 393.027 460.645 393.023 456.742 396.93C452.836 400.836 452.836 407.164 456.742 411.07L487.926 442.258C493.348 447.68 493.348 456.504 487.926 461.93C482.504 467.352 473.68 467.352 468.258 461.93L391.52 385.188C421.066 361.34 440.004 324.844 440.004 284C440.004 268.562 437.293 253.75 432.332 240H472C494.059 240 512 222.055 512 200V200ZM310.004 394C249.352 394 200.004 344.652 200.004 284C200.004 223.348 249.352 174 310.004 174C370.656 174 420.004 223.348 420.004 284C420.004 344.652 370.66 394 310.004 394Z" fill="#FEFAFA"/>
<path d="M433.02 373.211C431.16 375.07 430.09 377.648 430.09 380.281C430.09 382.91 431.16 385.488 433.02 387.352C434.891 389.211 437.461 390.281 440.09 390.281C442.719 390.281 445.301 389.211 447.16 387.352C449.031 385.488 450.09 382.91 450.09 380.281C450.09 377.648 449.031 375.07 447.16 373.211C445.301 371.352 442.73 370.281 440.09 370.281C437.461 370.281 434.879 371.352 433.02 373.211Z" fill="#FEFAFA"/>
</svg>
